<?xml version="1.0" encoding="UTF-8"?>
<svg id="Layer_1" data-name="Layer 1" xmlns="http://www.w3.org/2000/svg" viewBox="0 0 254.25 380.87">
  <defs>
    <style>
      .cls-1, .cls-2 {
        fill: #1e8e59;
      }

      .cls-2 {
        fill-rule: evenodd;
      }
    </style>
  </defs>
  <path class="cls-2" d="M147.24,185.63v42.07l8.05-5.4v-32.46c-2.41-1.31-5.12-3.27-8.05-4.21ZM98.95,189.84v32.46l8.05,5.4v-42.07c-2.94.95-5.64,2.91-8.05,4.21ZM98.95,231.79v19l5.76,3.89,2.29,1.53v-19l-8.05-5.42ZM93.54,174.71c-4.4,2.56-8.01,5.64-10.59,9.08h-.1v46.69l1.74,1.17,6.29,4.23v-48.13c1.82-2.08,4.25-4.02,7.13-5.71,4.66-2.72,10.49-4.78,17.04-5.93v95l8.05,5.42v-109.9c-11.43.57-21.78,3.56-29.55,8.1ZM171.29,183.79c-2.6-3.44-6.21-6.52-10.59-9.08-7.77-4.54-18.12-7.53-29.57-8.1v109.9l8.06-5.42v-95c6.55,1.15,12.36,3.21,17.02,5.93,2.91,1.68,5.33,3.63,7.13,5.71v38.63l-8.06,5.42-8.05,5.42v19l2.27-1.53,5.78-3.89v-9.49l8.06-5.42.55-.36,5.74-3.87,1.75-1.17v-46.69h-.1Z"/>
  <polyline class="cls-1" points="120.82 160.88 121.87 160.92 132.18 161.19"/>
  <polyline class="cls-1" points="121.87 283.32 132.18 283.61 132.54 283.63"/>
  <path class="cls-1" d="M219.82,330.56l-.29-171.22-18.26-13.19v-25.85s-21.22-23.67-21.22-23.67l-.63-39.88L125.54,0l-41.51,48.58h0s-9.2,10.01-9.2,10.01l-.64,39.75-19.69,21.96v24.86s-19.78,14.29-19.78,14.29l-.29,171.22c-16.25,12.34-32.28,28.54-34.43,50.2l12.89-21.49c16.04-20.04,42.07-33.37,71.36-39.85,56.54-11.41,126.54,1.52,157.11,39.74l12.89,21.49c-2.15-21.66-18.19-37.85-34.43-50.2ZM44.71,323.3v-159.02l9.79-6.42-.02,161.06c-5.03,2.63-9.23,4.96-9.77,4.38ZM72.22,312.99c-1.79-.92-5.42.15-9.46,1.89v-162.43l9.46-6.21v166.75ZM62.76,139.21v-13.67l11.22-13.92-.32,19.72-10.91,7.88ZM174.76,233.32l-1.87,1.29-2.89,1.98v71.14c-7.89-.46-12.61-1.7-19.81-2.63-5.48-.7-11.01-1.42-18.01-2.8v-18.67l-10.31-.29v19.24l-34.38,5.16-3.23.34v-71.36l-2.89-1.98-1.87-1.29v-51.47h.1c1.31-1.79,2.87-3.49,4.66-5.07l3.22-115.78h0s0-.08,0-.08l33.33-39.13,1.05,139.02,10.31.27V21.9l37.82,40.85v114.03c1.79,1.58,3.35,3.28,4.66,5.07h.1v51.47ZM180.25,109.7l12.76,15.83v14.66l-12.43-8.98-.34-21.51ZM182.03,312.87v-166.75l10.98,7.21v162.12c-4.64-2.13-8.97-3.61-10.98-2.57ZM209.54,323.19c-.48.53-3.91-1.3-8.25-3.58l-.02-160.86,8.27,5.43v159.02Z"/>
</svg>