<?xml version="1.0" encoding="UTF-8"?>
<svg id="Layer_1" xmlns="http://www.w3.org/2000/svg" version="1.1" viewBox="0 0 1106.24 473.49">
  <!-- Generator: Adobe Illustrator 29.7.0, SVG Export Plug-In . SVG Version: 2.1.1 Build 138)  -->
  <defs>
    <style>
      .st0, .st1, .st2, .st3 {
        fill: #eed793;
      }

      .st1 {
        font-family: Kugile, Kugile;
        font-size: 138.61px;
      }

      .st2 {
        fill-rule: evenodd;
      }

      .st3 {
        font-family: Poppins-Light, Poppins;
        font-size: 74.85px;
        font-weight: 300;
        letter-spacing: .47em;
      }
    </style>
  </defs>
  <g>
    <text class="st3" transform="translate(356.46 352.44)"><tspan x="0" y="0">PROPERTIES</tspan></text>
    <text class="st1" transform="translate(352.41 265.47)"><tspan x="0" y="0">AARAAM</tspan></text>
  </g>
  <g>
    <path class="st2" d="M179.64,229.88v49.33l9.43-6.33v-38.06c-2.82-1.53-6.01-3.83-9.43-4.94ZM123.02,234.82v38.06l9.43,6.33v-49.33c-3.45,1.11-6.61,3.41-9.43,4.94ZM123.02,284.01v22.28l6.75,4.56,2.68,1.79v-22.28l-9.43-6.35ZM116.66,217.08c-5.16,3-9.39,6.61-12.42,10.64h-.12v54.75l2.04,1.37,7.38,4.96v-56.45c2.14-2.44,4.98-4.72,8.37-6.69,5.46-3.19,12.3-5.6,19.98-6.96v111.4l9.43,6.35v-128.88c-13.41.67-25.54,4.17-34.65,9.5ZM207.85,227.73c-3.04-4.03-7.28-7.64-12.42-10.64-9.11-5.32-21.25-8.83-34.67-9.5v128.88l9.45-6.35v-111.4c7.68,1.35,14.49,3.77,19.96,6.96,3.41,1.98,6.25,4.25,8.37,6.69v45.3l-9.45,6.35-9.43,6.35v22.28l2.66-1.79,6.77-4.56v-11.13l9.45-6.35.65-.42,6.73-4.54,2.06-1.37v-54.75h-.12Z"/>
    <polyline class="st0" points="148.66 200.87 149.89 200.91 161.98 201.23"/>
    <polyline class="st0" points="149.89 344.44 161.98 344.79 162.41 344.81"/>
    <path class="st0" d="M264.76,399.85l-.34-200.79-21.41-15.47v-30.31s-24.89-27.76-24.89-27.76l-.73-46.76L154.2,12.2l-48.68,56.97h0s-10.79,11.74-10.79,11.74l-.75,46.62-23.08,25.75v29.15s-23.2,16.75-23.2,16.75l-.34,200.79c-19.05,14.47-37.86,33.46-40.38,58.87l15.12-25.2c18.81-23.51,49.33-39.13,83.68-46.73,66.3-13.39,148.39,1.78,184.24,46.6l15.12,25.2c-2.52-25.4-21.33-44.39-40.38-58.87ZM59.41,391.33v-186.47l11.48-7.53-.03,188.87c-5.9,3.08-10.83,5.82-11.45,5.14ZM91.67,379.24c-2.1-1.08-6.35.17-11.1,2.22v-190.48l11.1-7.28v195.55ZM80.57,175.45v-16.03l13.16-16.32-.37,23.12-12.79,9.24ZM211.92,285.81l-2.2,1.51-3.39,2.32v83.42c-9.25-.54-14.78-2-23.23-3.09-6.43-.83-12.92-1.67-21.12-3.28v-21.9l-12.1-.34v22.56l-40.32,6.05-3.79.4v-83.68l-3.39-2.32-2.2-1.51v-60.36h.12c1.53-2.1,3.37-4.09,5.46-5.95l3.78-135.77h0s0-.1,0-.1l39.09-45.88,1.23,163.03,12.1.32V37.89l44.35,47.9v133.72c2.1,1.85,3.93,3.85,5.46,5.95h.12v60.36ZM218.36,140.85l14.97,18.57v17.19l-14.57-10.53-.4-25.23ZM220.45,379.1v-195.55l12.88,8.45v190.11c-5.44-2.5-10.52-4.23-12.88-3.02ZM252.7,391.2c-.56.62-4.59-1.53-9.67-4.2l-.03-188.64,9.7,6.36v186.47Z"/>
  </g>
</svg>